<svg xmlns="http://www.w3.org/2000/svg" viewBox="0 0 64 64" width="64" height="64">
  <rect width="64" height="64" rx="14" fill="#15102b"/>
  <!-- speech bubble -->
  <path d="M14 16h36a6 6 0 0 1 6 6v18a6 6 0 0 1-6 6H32l-12 9v-9h-6a6 6 0 0 1-6-6V22a6 6 0 0 1 6-6z" fill="#c6ff3d"/>
  <!-- quotation marks -->
  <path d="M25 26c-3.6 0-6.4 2.8-6.4 6.4 0 3.2 2.3 5.6 5.3 5.6.5 0 .9-.06 1.2-.15-1 1.9-3 3.3-5.2 3.8l1.1 2.6c4.6-1.2 8-5.2 8-10.6V32c0-3.4-1.6-6-4-6z" fill="#15102b"/>
  <path d="M40 26c-3.6 0-6.4 2.8-6.4 6.4 0 3.2 2.3 5.6 5.3 5.6.5 0 .9-.06 1.2-.15-1 1.9-3 3.3-5.2 3.8l1.1 2.6c4.6-1.2 8-5.2 8-10.6V32c0-3.4-1.6-6-4-6z" fill="#15102b"/>
</svg>
